<?xml version="1.0" standalone="no"?>
<!DOCTYPE svg PUBLIC "-//W3C//DTD SVG 20010904//EN"
 "http://www.w3.org/TR/2001/REC-SVG-20010904/DTD/svg10.dtd">
<svg version="1.0" xmlns="http://www.w3.org/2000/svg"
 width="260.000000pt" height="260.000000pt" viewBox="0 0 260.000000 260.000000"
 preserveAspectRatio="xMidYMid meet">
<metadata>
Created by potrace 1.14, written by Peter Selinger 2001-2017
</metadata>
<g transform="translate(0.000000,260.000000) scale(0.100000,-0.100000)"
fill="#000000" stroke="none">
<path d="M1170 2433 c-254 -36 -477 -143 -648 -311 -87 -87 -105 -108 -161
-189 -89 -133 -149 -286 -177 -458 -11 -71 -10 -259 2 -346 11 -78 30 -160 48
-214 2 -5 7 -21 11 -33 16 -48 86 -184 126 -243 96 -141 252 -277 414 -361
179 -91 335 -127 535 -122 150 3 136 2 236 25 217 49 390 145 549 304 146 146
240 308 289 496 33 128 38 165 41 297 10 498 -285 927 -755 1097 -41 14 -109
33 -150 42 -69 14 -301 24 -360 16z"/>
</g>
</svg>
